# xmcd
#
# Track frame offsets: 
#        150
#        15162
#        31168
#        49567
#        66040
#        84781
#        104041
#        131299
#        149782
#        164718
#
# Disc length: 2400 seconds
#
# Revision: 0
# Processed by: cddbd v1.5.2PL0 Copyright (c) Steve Scherf et al.
# Submitted via: ExactAudioCopyFreeDBPlugin 1.0
#
DISCID=7d095e0a
DTITLE=Memphis La Blusera - Siempre
DYEAR=2014
DGENRE=Blues
TTITLE0=A veces dices que si
TTITLE1=Loco por tu amor
TTITLE2=Metamorfosis
TTITLE3=Siempre
TTITLE4=Me voy
TTITLE5=Maldita realidad
TTITLE6=Ni un minuto mas
TTITLE7=Seduccion
TTITLE8=Sr. Boticario
TTITLE9=Luz y oscuridad
EXTD=
EXTT0=
EXTT1=
EXTT2=
EXTT3=
EXTT4=
EXTT5=
EXTT6=
EXTT7=
EXTT8=
EXTT9=
PLAYORDER=
